<?xml version="1.0" encoding="UTF-8"?>
<svg xmlns="http://www.w3.org/2000/svg" version="1.1" viewBox="0 0 273 111.25">
  <defs>
    <style>
      .cls-1 {
        fill: #e85e24;
      }

      .cls-2 {
        fill: #179dd9;
      }
    </style>
  </defs>
  <!-- Generator: Adobe Illustrator 28.6.0, SVG Export Plug-In . SVG Version: 1.2.0 Build 709)  -->
  <g>
    <g id="Layer_1">
      <g>
        <g>
          <path class="cls-2" d="M72.24,41.47s-.01.02-.02.02c-.14.17-.27.33-.4.51,0,0,0,0,0,0-1.39,1.85-2.39,4.08-2.98,6.67h32.31c-.93-4.31-2.85-7.52-5.77-9.63-2.91-2.11-6.23-3.17-9.95-3.17-3.28,0-6.14.63-8.58,1.88h0s0,0,0,0c-.41.21-.81.44-1.19.69,0,0,0,0,0,0-.17.11-.35.23-.52.35-.02.01-.04.03-.06.04-.19.13-.37.27-.55.41-.17.14-.35.28-.51.42-.09.08-.17.15-.26.23-.08.07-.15.13-.23.2-.12.11-.23.22-.34.33-.04.04-.08.08-.12.12-.13.13-.26.27-.38.41-.02.02-.04.04-.06.06-.14.15-.27.31-.4.46Z"/>
          <path class="cls-2" d="M59.27,71.32c-1.76.6-3.67.9-5.72.9-4.71,0-8.61-1.56-11.69-4.69-3.09-3.13-4.63-7.08-4.63-11.88s1.54-8.87,4.63-12c3.08-3.12,6.98-4.69,11.69-4.69,1.71,0,3.33.23,4.85.67,1.52-3.25,3.6-6.21,6.23-8.9,1.31-1.33,2.69-2.53,4.16-3.58-4.59-2.44-9.63-3.66-15.12-3.66-9.18,0-16.83,3.09-22.96,9.26-6.13,6.17-9.2,13.81-9.2,22.9s3.06,16.73,9.2,22.9c6.13,6.17,13.78,9.26,22.96,9.26,5.93,0,11.33-1.44,16.2-4.32.21-.12.41-.25.62-.38-2.07-1.27-3.98-2.78-5.73-4.53-2.22-2.22-4.04-4.64-5.49-7.26Z"/>
          <path class="cls-2" d="M155.8,30.87c-6.51-6.46-14.45-9.69-23.82-9.69s-17.4,3.27-23.88,9.81v.02s0,.01,0,.02c4.24,4.59,6.97,9.94,8.16,16.07,0,.04.06.05.08,0,.81-1.86,1.94-3.53,3.42-5.03,3.25-3.29,7.33-4.94,12.23-4.94s9,1.65,12.29,4.94c3.29,3.29,4.94,7.48,4.94,12.54s-1.65,9.25-4.94,12.55c-3.29,3.29-7.39,4.94-12.29,4.94s-8.98-1.65-12.23-4.94c-1.68-1.7-2.92-3.63-3.73-5.8,0-.02-.02-.03-.04-.03h-12.69s-4.17,0-4.17,0h-30.52s-.05.03-.04.05c2.21,7.9,8.16,11.86,17.85,11.86,5.84,0,10.35-1.84,13.54-5.53.23-.28.44-.57.64-.86.02-.03.06-.02.07,0,1.61,4.24,4.12,8.08,7.55,11.51,6.46,6.46,14.38,9.69,23.76,9.69s17.32-3.23,23.82-9.69c6.5-6.46,9.76-14.38,9.76-23.76s-3.25-17.3-9.76-23.76Z"/>
        </g>
        <g>
          <path class="cls-2" d="M180.79,48.33c2.36,0,4.26.75,5.71,2.26,1.45,1.51,2.18,3.58,2.18,6.2v12.62h-4.44v-12.16c0-1.53-.41-2.71-1.23-3.53-.82-.82-1.95-1.23-3.37-1.23-1.56,0-2.82.49-3.78,1.46-.96.97-1.44,2.46-1.44,4.46v11.01h-4.44v-20.55h4.44v2.63c1.34-2.11,3.47-3.16,6.37-3.16Z"/>
          <path class="cls-2" d="M192.02,69.41v-30h4.44v30h-4.44Z"/>
          <path class="cls-2" d="M199.91,69.41v-20.55h4.44v20.55h-4.44Z"/>
          <path class="cls-1" d="M199.91,45.75v-4.44h4.44v4.44h-4.44Z"/>
          <path class="cls-2" d="M219.15,48.33c2.36,0,4.26.75,5.71,2.26,1.45,1.51,2.18,3.58,2.18,6.2v12.62h-4.44v-12.16c0-1.53-.41-2.71-1.23-3.53-.82-.82-1.95-1.23-3.37-1.23-1.56,0-2.82.49-3.78,1.46-.96.97-1.44,2.46-1.44,4.46v11.01h-4.44v-20.55h4.44v2.63c1.34-2.11,3.47-3.16,6.37-3.16Z"/>
          <path class="cls-2" d="M234.97,61.02c.33,1.56,1.08,2.76,2.26,3.6,1.18.84,2.62,1.25,4.31,1.25,2.36,0,4.12-.85,5.3-2.55l3.66,2.14c-2.03,2.99-5.03,4.48-9,4.48-3.34,0-6.04-1.02-8.1-3.06-2.05-2.04-3.08-4.62-3.08-7.75s1.01-5.64,3.04-7.7c2.03-2.07,4.63-3.1,7.81-3.1,3.01,0,5.49,1.05,7.42,3.16,1.93,2.11,2.9,4.67,2.9,7.68,0,.47-.06,1.08-.16,1.85h-16.35ZM234.93,57.41h12.08c-.3-1.67-.99-2.93-2.08-3.78-1.08-.85-2.35-1.27-3.8-1.27-1.64,0-3.01.45-4.11,1.36-1.1.9-1.79,2.14-2.1,3.7Z"/>
        </g>
      </g>
    </g>
  </g>
</svg>